<?xml version="1.0" encoding="utf-8"?>
<svg xmlns="http://www.w3.org/2000/svg" viewBox="0 0 80 80" width="320" height="320">
  <path fill="#fff9de" d="M5.842,65.299c-0.979-2.331-2.013-16.313-2.3-22.799h6.828c-0.08,0.421-0.181,1.08-0.286,2.084 l-0.576,3.331C9.272,50.138,7.062,63.188,5.842,65.299z" />
  <path fill="#f5c276" d="M9.778,43c-0.059,0.388-0.123,0.88-0.188,1.499L9.015,47.83l-0.006,0.033l-0.003,0.033 c-0.19,1.803-1.859,11.8-3.071,15.772C5.154,59.62,4.361,49.356,4.065,43H9.778 M3,41.34V42h0.02C3.007,41.674,3,41.448,3,41.34 L3,41.34z M11,42H3.02c0.166,4.098,1.347,24,2.779,24C7.237,66,9.857,49.36,10,48l0.581-3.364C10.804,42.511,11,42,11,42L11,42z" />
  <path fill="#fff9de" d="M11.826,69.326C10.657,66.885,9.5,50.035,9.5,48v-3.5h6.958c-0.07,0.851-0.215,2.566-0.375,4.084 l-0.576,3.331C15.271,54.148,13.042,67.302,11.826,69.326z" />
  <path fill="#f5c276" d="M15.915,45c-0.077,0.917-0.197,2.275-0.325,3.499l-0.575,3.331l-0.006,0.033l-0.003,0.033 c-0.192,1.82-1.891,11.988-3.105,15.882C10.929,63.206,10,50.21,10,48v-3H15.915 M17,44H9v4c0,1.469,1.253,22,2.799,22 c1.438,0,4.058-16.64,4.201-18l0.581-3.364C16.804,46.511,17,44,17,44L17,44z" />
  <path fill="#fff9de" d="M17.813,73.298C16.649,70.763,15.5,54.028,15.5,52v-5.5h6.977c-0.058,1.229-0.213,4.33-0.386,6.01 l-0.58,1.363l-0.008,0.075C21.206,56.771,19.028,71.033,17.813,73.298z" />
  <path fill="#f5c276" d="M21.952,47c-0.069,1.408-0.204,3.908-0.351,5.384l-0.521,1.224l-0.059,0.138l-0.016,0.149 c-0.24,2.279-1.934,13.446-3.135,17.739C16.91,66.941,16,54.187,16,52v-5H21.952 M23,46h-8v6c0,1.469,1.253,22,2.799,22 c1.438,0,4.058-18.64,4.201-20l0.581-1.364C22.804,50.511,23,46,23,46L23,46z" />
  <path fill="#fff9de" d="M23.783,71.384C22.681,69.734,21.5,57.898,21.5,56v-9.5h6.958c-0.07,0.851-0.215,2.566-0.375,4.084 l-0.011,0.102l0.418,1.361C28.203,54.342,25.104,69.447,23.783,71.384z" />
  <path fill="#f5c276" d="M27.915,47c-0.078,0.925-0.199,2.299-0.329,3.532l-0.021,0.203l0.06,0.195l0.356,1.159 c-0.311,2.232-2.745,14.143-4.157,17.997C22.919,66.822,22,57.883,22,56v-9H27.915 M29,46h-8v10c0,1.469,1.253,16,2.799,16 c1.438,0,5.058-18.64,5.201-20l-0.419-1.364C28.804,48.511,29,46,29,46L29,46z" />
  <path fill="#fff9de" d="M74.158,65.299c-1.22-2.111-3.43-15.159-3.661-17.351l-0.585-3.396 c-0.104-0.985-0.203-1.634-0.282-2.051h6.828C76.171,48.985,75.137,62.968,74.158,65.299z" />
  <path fill="#f5c276" d="M75.935,43c-0.296,6.356-1.09,16.62-1.869,20.668c-1.212-3.972-2.882-13.969-3.071-15.772 l-0.003-0.033l-0.006-0.033l-0.575-3.331c-0.066-0.619-0.13-1.11-0.188-1.499H75.935 M77,41.34c0,0.108-0.007,0.334-0.02,0.66H77 V41.34L77,41.34z M76.98,42H69c0,0,0.196,0.511,0.419,2.636L70,48c0.143,1.36,2.763,18,4.201,18C75.633,66,76.814,46.098,76.98,42 L76.98,42z" />
  <path fill="#fff9de" d="M68.174,69.326c-1.217-2.023-3.445-15.176-3.677-17.378l-0.585-3.396 c-0.157-1.494-0.301-3.202-0.371-4.051H70.5V48C70.5,50.035,69.343,66.885,68.174,69.326z" />
  <path fill="#f5c276" d="M70,45v3c0,2.21-0.929,15.206-1.9,19.778c-1.214-3.894-2.914-14.062-3.105-15.882l-0.003-0.033 l-0.006-0.033l-0.575-3.331c-0.128-1.223-0.248-2.582-0.325-3.499H70 M71,44h-8c0,0,0.196,2.511,0.419,4.636L64,52 c0.143,1.36,2.763,18,4.201,18C69.747,70,71,49.469,71,48V44L71,44z" />
  <path fill="#fff9de" d="M62.187,73.298c-1.215-2.265-3.393-16.528-3.69-19.351l-0.008-0.075l-0.58-1.363 c-0.172-1.68-0.328-4.78-0.386-6.01H64.5V52C64.5,54.028,63.351,70.763,62.187,73.298z" />
  <path fill="#f5c276" d="M64,47v5c0,2.187-0.91,14.941-1.87,19.634c-1.202-4.293-2.895-15.46-3.135-17.739l-0.016-0.149 l-0.059-0.138l-0.521-1.224c-0.147-1.476-0.281-3.976-0.351-5.384H64 M65,46h-8c0,0,0.196,4.511,0.419,6.636L58,54 c0.143,1.36,2.763,20,4.201,20C63.747,74,65,53.469,65,52V46L65,46z" />
  <path fill="#fff9de" d="M56.217,71.384c-1.321-1.938-4.42-17.042-4.708-19.338l0.418-1.361l-0.011-0.102 c-0.16-1.518-0.305-3.233-0.375-4.084H58.5V56C58.5,57.898,57.319,69.734,56.217,71.384z" />
  <path fill="#f5c276" d="M58,47v9c0,1.883-0.919,10.822-1.824,14.086c-1.412-3.854-3.845-15.764-4.157-17.997l0.356-1.159 l0.06-0.195l-0.021-0.203c-0.13-1.232-0.251-2.607-0.329-3.532H58 M59,46h-8c0,0,0.196,2.511,0.419,4.636L51,52 c0.143,1.36,3.763,20,5.201,20C57.747,72,59,57.469,59,56V46L59,46z" />
  <g>
    <path fill="#a16a4a" d="M39.947,66.999c-2.547,0-5.036-1.174-6.83-3.223C24.916,54.41,10.839,47.43,5.168,44.863 c-1.704-0.771-2.773-2.56-2.66-4.451C4.34,9.804,29.338,6.5,40,6.5c10.661,0,35.656,3.304,37.492,33.904 c0.114,1.896-0.958,3.689-2.666,4.462c-5.67,2.567-19.744,9.547-27.942,18.91c-1.794,2.048-4.283,3.223-6.83,3.223H39.947z" />
    <path fill="#704e34" d="M40,7c4.364,0,12.836,0.621,20.542,4.781c10.102,5.454,15.637,15.094,16.45,28.653 c0.101,1.69-0.852,3.288-2.373,3.977c-5.699,2.58-19.848,9.598-28.112,19.036c-1.699,1.94-4.051,3.052-6.454,3.052h-0.106 c-2.403,0-4.755-1.112-6.454-3.052c-8.267-9.44-22.419-16.459-28.119-19.039c-1.517-0.686-2.468-2.28-2.367-3.966 c0.812-13.562,6.346-23.205,16.449-28.66C27.162,7.621,35.635,7,40,7 M40,6C32.643,6,3.971,7.612,2.009,40.382 c-0.125,2.093,1.038,4.07,2.953,4.937c6.065,2.745,19.725,9.589,27.779,18.787c1.835,2.096,4.416,3.393,7.206,3.393h0.106 c2.79,0,5.371-1.297,7.206-3.393c8.051-9.194,21.704-16.037,27.772-18.784c1.919-0.868,3.085-2.849,2.959-4.947 C76.025,7.612,47.357,6,40,6L40,6z" />
  </g>
  <g>
    <path fill="#e0ac89" d="M40,68.833c-1.604,0-3.119-0.703-4.054-1.879c-1.575-1.981-3.527-4.191-5.593-6.53 C23.29,52.429,14.5,42.477,14.5,34.323c0-11.964,9.538-19.367,25.514-19.803C55.962,14.956,65.5,22.359,65.5,34.323 c0,8.154-8.79,18.105-15.853,26.102c-2.066,2.339-4.018,4.548-5.593,6.53C43.119,68.131,41.604,68.833,40,68.833z" />
    <path fill="#704e34" d="M40,15.021c15.654,0.436,25,7.65,25,19.302c0,7.965-8.721,17.838-15.728,25.771 c-2.07,2.344-4.026,4.558-5.609,6.549c-0.841,1.058-2.21,1.69-3.663,1.69s-2.822-0.632-3.663-1.69 c-1.583-1.991-3.539-4.205-5.609-6.549C23.721,52.161,15,42.288,15,34.323C15,22.671,24.346,15.457,40,15.021 M41.529,14h-3.059 c0.518,0,1.026,0.007,1.529,0.021C40.503,14.007,41.012,14,41.529,14L41.529,14z M40,14.021c-17.332,0.473-26,9.017-26,20.302 c0,10.738,14.528,24.104,21.554,32.943c1.037,1.304,2.679,2.068,4.446,2.068s3.409-0.763,4.446-2.068 C51.472,58.427,66,45.061,66,34.323C66,23.037,57.332,14.493,40,14.021L40,14.021z" />
  </g>
  <g>
    <path fill="#f78f8f" d="M38,69.5c-1.93,0-3.5-1.57-3.5-3.5s1.57-3.5,3.5-3.5h4c1.93,0,3.5,1.57,3.5,3.5s-1.57,3.5-3.5,3.5 H38z" />
    <path fill="#c74343" d="M42,63c1.654,0,3,1.346,3,3s-1.346,3-3,3h-4c-1.654,0-3-1.346-3-3s1.346-3,3-3H42 M42,62h-4 c-2.209,0-4,1.791-4,4v0c0,2.209,1.791,4,4,4h4c2.209,0,4-1.791,4-4v0C46,63.791,44.209,62,42,62L42,62z" />
  </g>
  <g>
    <path d="M49 46A1 1 0 1 0 49 48A1 1 0 1 0 49 46Z" />
  </g>
  <g>
    <path d="M31 46A1 1 0 1 0 31 48A1 1 0 1 0 31 46Z" />
  </g>
  <g>
    <path fill="#f78f8f" d="M37.5,68.691V68c0-0.276,0.224-0.5,0.5-0.5s0.5,0.224,0.5,0.5v1.191L37.5,68.691z" />
    <path fill="#c74343" d="M38,68v0.382l-0.001,0l0-0.382L38,68 M38,67c-0.552,0-1,0.448-1,1v1l2,1v-2 C39,67.448,38.552,67,38,67L38,67z" />
  </g>
  <g>
    <path fill="#f78f8f" d="M41.5,68c0-0.276,0.224-0.5,0.5-0.5s0.5,0.224,0.5,0.5v0.691l-1,0.5V68z" />
    <path fill="#c74343" d="M42,68v0.382l-0.001,0.001l0-0.382L42,68 M42,67c-0.552,0-1,0.448-1,1v2l2-1v-1 C43,67.448,42.552,67,42,67L42,67z" />
  </g>
</svg>